<svg
  xmlns="http://www.w3.org/2000/svg"
  width="1080"
  height="240"
  viewBox="0 400 1080 240"
  xml:space="preserve"
>
  <g transform="translate(540 540)" />
  <g transform="translate(540 540)" />
  <g transform="scale(0)" />
  <g transform="matrix(.85 0 0 .85 544.05 474.83)" />
  <g transform="matrix(.85 0 0 .85 543.96 474.78)" />
  <path
    style="
      stroke: #d1d3d6;
      stroke-width: 0;
      stroke-dasharray: none;
      stroke-linecap: butt;
      stroke-dashoffset: 0;
      stroke-linejoin: miter;
      stroke-miterlimit: 2;
      fill: #d1d3d6;
      fill-rule: nonzero;
      opacity: 1;
    "
    vector-effect="non-scaling-stroke"
    transform="translate(-894.264 592.334)scale(2.82)"
    d="M326.31 0h36.433c15.12 0 27.936-11.232 30.384-25.2s-6.336-25.2-21.456-25.2h-36.432L332.647-36h34.056c6.12 0 10.152 4.896 9.144 10.656-1.08 6.12-6.768 10.944-12.888 10.944H346.11l3.096-17.28h-17.28z"
  />
  <path
    style="
      stroke: #d1d3d6;
      stroke-width: 0;
      stroke-dasharray: none;
      stroke-linecap: butt;
      stroke-dashoffset: 0;
      stroke-linejoin: miter;
      stroke-miterlimit: 2;
      fill: #d1d3d6;
      fill-rule: nonzero;
      opacity: 1;
    "
    vector-effect="non-scaling-stroke"
    transform="translate(-895.513 592.334)scale(2.82)"
    d="m435-50.4 19.44 24.48L424.633 0h23.76l15.768-13.68L475.032 0h20.88l-19.44-24.48L506.28-50.4h-23.76l-15.768 13.68L455.88-50.4zM390.578 0h27.863L435-14.4h-41.832zm3.312-18.72h45.935l8.424-7.2-4.536-5.76h-47.52zM396.913-36h43.344l-11.448-14.4h-29.304z"
  />
  <path
    style="
      stroke: #d1d3d6;
      stroke-width: 0;
      stroke-dasharray: none;
      stroke-linecap: butt;
      stroke-dashoffset: 0;
      stroke-linejoin: miter;
      stroke-miterlimit: 2;
      fill: #d1d3d6;
      fill-rule: nonzero;
      opacity: 1;
    "
    vector-effect="non-scaling-stroke"
    transform="translate(-897.704 592.329)scale(2.82)"
    d="M562.306-23.616c-1.009 5.544-5.616 9.216-15.336 9.216-10.009 0-13.033-3.672-12.024-9.216l4.751-26.784h-17.28l-4.751 26.784C514.858-7.776 521.482.72 544.306.72c22.104 0 32.471-8.496 35.28-24.336l4.751-26.784h-17.28z"
  />
  <path
    style="
      stroke: #d1d3d6;
      stroke-width: 0;
      stroke-dasharray: none;
      stroke-linecap: butt;
      stroke-dashoffset: 0;
      stroke-linejoin: miter;
      stroke-miterlimit: 2;
      fill: #d1d3d6;
      fill-rule: nonzero;
      opacity: 1;
    "
    vector-effect="non-scaling-stroke"
    transform="translate(-898.906 592.334)scale(2.82)"
    d="M579.017 0h17.28l3.024-17.208h9.504L616.457 0h18l-8.064-18.144c6.48-1.368 11.448-4.896 13.608-13.536h-55.368zm6.336-36h57.816l-6.408 36h54l2.592-14.4h-36.792l6.408-36h-75.024z"
  />
</svg>
